<svg viewBox="0 0 1100 900" xmlns="http://www.w3.org/2000/svg" width="1100" height="900">
<defs>
  <filter id="glow" x="-50%" y="-50%" width="200%" height="200%">
    <feGaussianBlur stdDeviation="5" result="blur"/>
    <feComposite in="SourceGraphic" in2="blur" operator="over"/>
  </filter>
  <filter id="glowStrong" x="-50%" y="-50%" width="200%" height="200%">
    <feGaussianBlur stdDeviation="8" result="blur"/>
    <feComposite in="SourceGraphic" in2="blur" operator="over"/>
  </filter>
  <filter id="glass" x="-5%" y="-5%" width="110%" height="110%">
    <feGaussianBlur in="SourceGraphic" stdDeviation="1.5" result="blur"/>
    <feColorMatrix in="blur" type="matrix" values="1 0 0 0 0  0 1 0 0 0  0 0 1 0 0  0 0 0 0.6 0" result="opacity"/>
    <feComposite in="SourceGraphic" in2="opacity" operator="over"/>
  </filter>
  <linearGradient id="bgGrad" x1="0" y1="0" x2="0.5" y2="1">
    <stop offset="0%" stop-color="#080808"/>
    <stop offset="40%" stop-color="#0c0c10"/>
    <stop offset="100%" stop-color="#0a0b0f"/>
  </linearGradient>
  <linearGradient id="sectionGrad" x1="0" y1="0" x2="0" y2="1">
    <stop offset="0%" stop-color="rgba(255,255,255,0.03)"/>
    <stop offset="100%" stop-color="rgba(255,255,255,0.008)"/>
  </linearGradient>
  <pattern id="grid" width="50" height="50" patternUnits="userSpaceOnUse">
    <path d="M50 0L0 0 0 50" fill="none" stroke="rgba(255,255,255,.018)" stroke-width=".3"/>
  </pattern>
  <linearGradient id="glassTint" x1="0" y1="0" x2="0" y2="1">
    <stop offset="0%" stop-color="rgba(255,255,255,0.12)"/>
    <stop offset="20%" stop-color="rgba(255,255,255,0.04)"/>
    <stop offset="100%" stop-color="rgba(0,0,0,0.4)"/>
  </linearGradient>
  <style>
    text { font-family: 'Segoe UI', system-ui, sans-serif; fill: #e8eaf0; pointer-events: none; }
    @keyframes glowPulse { 
      0%,100% { stroke-width: 2.2; filter: url(#glow); opacity: 0.8; }
      50% { stroke-width: 3.5; filter: url(#glowStrong); opacity: 1; }
    }
    @keyframes dashFlow { to { stroke-dashoffset: -20; } }
    .node-anim { animation: glowPulse 2.8s infinite ease-in-out; }
    .glass-box { fill: url(#glassTint); }
    .flow-line { fill:none; stroke-width:2; stroke-dasharray:8,5; animation: dashFlow 1.5s linear infinite; }
    .flow-cyan { stroke: rgba(0,229,255,0.45); }
    .flow-green { stroke: rgba(16,255,160,0.45); }
    .flow-red { stroke: rgba(255,77,106,0.45); }
    .flow-amber { stroke: rgba(251,191,36,0.45); }
    .flow-orange { stroke: rgba(255,107,53,0.45); }
    .flow-violet { stroke: rgba(167,139,250,0.45); }
    .particle { filter: url(#glow); }
    .section-label { fill: #556; font-size: 13px; font-weight: bold; letter-spacing: 3px; }
    .node-title { font-size: 15px; font-weight: bold; }
    .node-sub { font-size: 11px; fill: #8b949e; }
    .node-num { font-size: 11px; font-weight: bold; }
    .emoji { font-size: 26px; }
    .tag { font-size: 9px; font-weight: bold; letter-spacing: 1px; }
  </style>
</defs>

<!-- Background -->
<rect width="1100" height="900" fill="url(#bgGrad)"/>
<rect width="1100" height="900" fill="url(#grid)"/>
<ellipse cx="200" cy="150" rx="300" ry="120" fill="rgba(232,184,75,0.01)"/>
<ellipse cx="550" cy="500" rx="400" ry="250" fill="rgba(16,255,160,0.008)"/>
<ellipse cx="900" cy="300" rx="250" ry="150" fill="rgba(238,9,121,0.006)"/>

<!-- Title -->
<text x="550" y="48" text-anchor="middle" font-size="24" font-weight="900" fill="#f0f6fc" letter-spacing="2">💰 AGENTIC FINANCIAL PARSER</text>
<text x="550" y="72" text-anchor="middle" font-size="13" fill="#4b5563" letter-spacing="1">8-Node LangGraph Architecture · Built by Ambuj Kumar Tripathi</text>

<!-- ═══ SECTION 1: FRONTEND & AUTH ═══ -->
<rect x="50" y="95" width="1000" height="130" rx="16" fill="url(#sectionGrad)" stroke="rgba(255,255,255,0.06)" stroke-width="1" stroke-dasharray="6,4"/>
<text x="75" y="118" class="section-label" fill="rgba(255,255,255,0.3)">FRONTEND &amp; AUTH</text>

<!-- React SPA -->
<g>
  <rect class="glass-box node-anim" x="90" y="140" width="200" height="65" rx="12" stroke="#61dafb"/>
  <text x="110" y="175" class="emoji">⚛️</text>
  <text x="155" y="170" class="node-title" fill="#61dafb">React SPA</text>
  <text x="155" y="186" class="node-sub">Vite · Google OAuth 2.0</text>
</g>

<!-- Flow: React → Google Auth -->
<path class="flow-line flow-cyan" d="M290,172 L430,172"/>
<circle r="4" fill="#61dafb" class="particle"><animateMotion dur="1.5s" repeatCount="indefinite" path="M290,172 L430,172"/></circle>

<!-- Google OAuth -->
<g>
  <rect class="glass-box node-anim" x="430" y="140" width="210" height="65" rx="12" stroke="#ea4335"/>
  <text x="450" y="175" class="emoji">🔐</text>
  <text x="500" y="170" class="node-title" fill="#ea4335">Google OAuth 2.0</text>
  <text x="500" y="186" class="node-sub">JWT · Secure sessions</text>
</g>

<!-- Flow: Google → FastAPI -->
<path class="flow-line flow-cyan" d="M640,172 L770,172"/>
<circle r="4" fill="#05998b" class="particle"><animateMotion dur="1.5s" repeatCount="indefinite" path="M640,172 L770,172"/></circle>

<!-- FastAPI Backend -->
<g>
  <rect class="glass-box node-anim" x="770" y="140" width="210" height="65" rx="12" stroke="#05998b"/>
  <text x="790" y="175" class="emoji">⚡</text>
  <text x="840" y="170" class="node-title" fill="#05998b">FastAPI Backend</text>
  <text x="840" y="186" class="node-sub">Async · pybreaker Circuit</text>
</g>

<!-- ═══ SECTION 2: 8-NODE RAG PIPELINE ═══ -->
<rect x="50" y="245" width="1000" height="400" rx="16" fill="url(#sectionGrad)" stroke="rgba(255,255,255,0.06)" stroke-width="1" stroke-dasharray="6,4"/>
<text x="75" y="270" class="section-label" fill="rgba(255,255,255,0.3)">8-NODE AGENTIC RAG PIPELINE</text>

<!-- Node 1: Classifier -->
<g>
  <rect class="glass-box node-anim" x="80" y="295" width="190" height="75" rx="14" stroke="#a78bfa"/>
  <text x="100" y="332" class="emoji">🧠</text>
  <text x="148" y="325" class="node-num" fill="#a78bfa">NODE 1</text>
  <text x="148" y="342" class="node-title" fill="#a78bfa">Classifier</text>
  <text x="148" y="358" class="node-sub">4 paths · Zero API call</text>
</g>

<!-- Node 2: Reject -->
<g>
  <rect class="glass-box node-anim" x="390" y="293" width="160" height="50" rx="10" stroke="#ff4d6a"/>
  <text x="408" y="322" font-size="20">🚫</text>
  <text x="445" y="315" class="node-num" fill="#ff4d6a">NODE 2</text>
  <text x="445" y="332" class="node-title" fill="#ff4d6a">Reject</text>
</g>

<!-- Node 3: Greet -->
<g>
  <rect class="glass-box node-anim" x="390" y="353" width="160" height="50" rx="10" stroke="#10ffa0"/>
  <text x="408" y="382" font-size="20">👋</text>
  <text x="445" y="375" class="node-num" fill="#10ffa0">NODE 3</text>
  <text x="445" y="392" class="node-title" fill="#10ffa0">Greet</text>
</g>

<!-- Node 4: CrossQuestioner (HITL) -->
<g>
  <rect class="glass-box node-anim" x="390" y="415" width="200" height="55" rx="10" stroke="#ff6b35"/>
  <text x="408" y="447" font-size="20">❓</text>
  <text x="455" y="438" class="node-num" fill="#ff6b35">NODE 4 · HITL</text>
  <text x="455" y="455" class="node-title" fill="#ff6b35">CrossQuestioner</text>
</g>

<!-- Node 5: Retriever -->
<g>
  <rect class="glass-box node-anim" x="80" y="485" width="190" height="70" rx="14" stroke="#00e5ff"/>
  <text x="100" y="525" class="emoji">🔎</text>
  <text x="148" y="512" class="node-num" fill="#00e5ff">NODE 5</text>
  <text x="148" y="528" class="node-title" fill="#00e5ff">Retriever</text>
  <text x="148" y="544" class="node-sub">Pinecone · cosine score</text>
</g>

<!-- Node 6: Generator -->
<g>
  <rect class="glass-box node-anim" x="380" y="485" width="190" height="70" rx="14" stroke="#fbbf24"/>
  <text x="400" y="525" class="emoji">✨</text>
  <text x="448" y="512" class="node-num" fill="#fbbf24">NODE 6</text>
  <text x="448" y="528" class="node-title" fill="#fbbf24">Generator</text>
  <text x="448" y="544" class="node-sub">Qwen 72B · temp=0.3</text>
</g>

<!-- Node 7: Hallucination Guard -->
<g>
  <rect class="glass-box node-anim" x="680" y="485" width="200" height="70" rx="14" stroke="#ee0979"/>
  <text x="700" y="525" class="emoji">🛡️</text>
  <text x="755" y="512" class="node-num" fill="#ee0979">NODE 7 · JUDGE</text>
  <text x="755" y="528" class="node-title" fill="#ee0979">HallucinationGuard</text>
  <text x="755" y="544" class="node-sub">grounded ✓ · hallucinated ✗</text>
</g>

<!-- Node 8: PostProcess -->
<g>
  <rect class="glass-box node-anim" x="690" y="610" width="190" height="60" rx="14" stroke="#00f2fe"/>
  <text x="710" y="645" class="emoji">⚙️</text>
  <text x="758" y="637" class="node-num" fill="#00f2fe">NODE 8</text>
  <text x="758" y="653" class="node-title" fill="#00f2fe">PostProcess</text>
</g>

<!-- Branch lines (kept unchanged) -->
<path class="flow-line flow-red" d="M270,315 L390,315"/>
<circle r="3" fill="#ff4d6a" class="particle"><animateMotion dur="2s" repeatCount="indefinite" path="M270,315 L390,315"/></circle>
<path class="flow-line flow-green" d="M270,335 L390,370"/>
<circle r="3" fill="#10ffa0" class="particle"><animateMotion dur="2s" repeatCount="indefinite" path="M270,335 L390,370"/></circle>
<path class="flow-line flow-orange" d="M270,355 L390,430"/>
<circle r="3" fill="#ff6b35" class="particle"><animateMotion dur="2s" repeatCount="indefinite" path="M270,355 L390,430"/></circle>
<path class="flow-line flow-cyan" d="M175,370 L175,485"/>
<circle r="4" fill="#00e5ff" class="particle"><animateMotion dur="2s" repeatCount="indefinite" path="M175,370 L175,485"/></circle>
<path class="flow-line flow-cyan" d="M270,520 L380,520"/>
<circle r="4" fill="#00e5ff" class="particle"><animateMotion dur="1.5s" repeatCount="indefinite" path="M270,520 L380,520"/></circle>
<path class="flow-line flow-amber" d="M570,520 L680,520"/>
<circle r="4" fill="#fbbf24" class="particle"><animateMotion dur="1.5s" repeatCount="indefinite" path="M570,520 L680,520"/></circle>
<path class="flow-line flow-violet" d="M780,555 L780,610"/>
<circle r="4" fill="#a78bfa" class="particle"><animateMotion dur="1.5s" repeatCount="indefinite" path="M780,555 L780,610"/></circle>

<path class="flow-line flow-red" d="M550,318 L600,318"/>
<path class="flow-line flow-green" d="M550,378 L600,378"/>
<path class="flow-line flow-orange" d="M590,443 L640,443"/>

<!-- ═══ SECTION 3: INFRASTRUCTURE ═══ -->
<rect x="50" y="695" width="1000" height="170" rx="16" fill="url(#sectionGrad)" stroke="rgba(255,255,255,0.06)" stroke-width="1" stroke-dasharray="6,4"/>
<text x="75" y="720" class="section-label" fill="rgba(167,139,250,0.3)">INFRASTRUCTURE</text>

<!-- Pinecone -->
<g>
  <rect class="glass-box node-anim" x="60" y="740" width="160" height="75" rx="14" stroke="#22c55e"/>
  <text x="80" y="778" class="emoji">🌲</text>
  <text x="155" y="772" class="node-title" fill="#22c55e">Pinecone</text>
  <text x="155" y="790" class="node-sub">9,000+ Vectors (MRL)</text>
</g>

<!-- Supabase -->
<g>
  <rect class="glass-box node-anim" x="250" y="740" width="160" height="75" rx="14" stroke="#3ecf8e"/>
  <text x="270" y="778" class="emoji">🐘</text>
  <text x="345" y="772" class="node-title" fill="#3ecf8e">Supabase</text>
  <text x="345" y="790" class="node-sub">SHA-256 Registry</text>
</g>

<!-- MongoDB -->
<g>
  <rect class="glass-box node-anim" x="440" y="740" width="170" height="75" rx="14" stroke="#47a248"/>
  <text x="460" y="778" class="emoji">🍃</text>
  <text x="540" y="772" class="node-title" fill="#47a248">MongoDB</text>
  <text x="540" y="790" class="node-sub">Chat History · HITL</text>
</g>

<!-- Redis -->
<g>
  <rect class="glass-box node-anim" x="640" y="740" width="170" height="75" rx="14" stroke="#dc382d"/>
  <text x="660" y="778" class="emoji">⚡</text>
  <text x="740" y="772" class="node-title" fill="#dc382d">Redis</text>
  <text x="740" y="790" class="node-sub">Cache &lt;100ms · Rate Limit</text>
</g>

<!-- Langfuse -->
<g>
  <rect class="glass-box node-anim" x="840" y="740" width="170" height="75" rx="14" stroke="#f97316"/>
  <text x="860" y="778" class="emoji">📊</text>
  <text x="940" y="772" class="node-title" fill="#f97316">Langfuse</text>
  <text x="940" y="790" class="node-sub">LLM Tracing · Tokens</text>
</g>

<!-- Footer -->
<text x="550" y="880" text-anchor="middle" font-size="11" fill="#4b5563" font-weight="bold">Built by Ambuj Kumar Tripathi · ₹0/month · 512MB RAM · Render Free Tier</text>

</svg>
