<svg viewBox="0 0 960 600" xmlns="http://www.w3.org/2000/svg" width="960" height="600">
<defs>
  <style>
    @keyframes dash { to { stroke-dashoffset: -24; } }
    @keyframes glow  { 0%,100%{filter:drop-shadow(0 0 3px #00e5ff)} 50%{filter:drop-shadow(0 0 10px #00e5ff)} }
    @keyframes glowG { 0%,100%{filter:drop-shadow(0 0 3px #10ffa0)} 50%{filter:drop-shadow(0 0 10px #10ffa0)} }
    @keyframes glowR { 0%,100%{filter:drop-shadow(0 0 3px #ff4d6a)} 50%{filter:drop-shadow(0 0 10px #ff4d6a)} }
    @keyframes glowA { 0%,100%{filter:drop-shadow(0 0 3px #fbbf24)} 50%{filter:drop-shadow(0 0 10px #fbbf24)} }
    @keyframes glowV { 0%,100%{filter:drop-shadow(0 0 3px #a78bfa)} 50%{filter:drop-shadow(0 0 10px #a78bfa)} }
    @keyframes glowO { 0%,100%{filter:drop-shadow(0 0 3px #ff6b35)} 50%{filter:drop-shadow(0 0 10px #ff6b35)} }

    .flow-cy { stroke:#00e5ff; stroke-width:1.5; fill:none; stroke-dasharray:6,4; animation:dash 1.2s linear infinite; }
    .flow-gr { stroke:#10ffa0; stroke-width:1.5; fill:none; stroke-dasharray:6,4; animation:dash 1.4s linear infinite; }
    .flow-re { stroke:#ff4d6a; stroke-width:1.5; fill:none; stroke-dasharray:6,4; animation:dash 1.6s linear infinite; }
    .flow-am { stroke:#fbbf24; stroke-width:1.5; fill:none; stroke-dasharray:6,4; animation:dash 1.3s linear infinite; }
    .flow-vi { stroke:#a78bfa; stroke-width:1.5; fill:none; stroke-dasharray:6,4; animation:dash 1.5s linear infinite; }
    .flow-or { stroke:#ff6b35; stroke-width:1.5; fill:none; stroke-dasharray:6,4; animation:dash 1.7s linear infinite; }
    .flow-cy2{ stroke:rgba(0,229,255,.3); stroke-width:1; fill:none; stroke-dasharray:4,6; animation:dash 2s linear infinite; }

    .nc { animation:glow  2.5s ease-in-out infinite; }
    .ng { animation:glowG 2.8s ease-in-out infinite; }
    .nr { animation:glowR 3.0s ease-in-out infinite; }
    .na { animation:glowA 2.6s ease-in-out infinite; }
    .nv { animation:glowV 3.2s ease-in-out infinite; }
    .no { animation:glowO 2.7s ease-in-out infinite; }

    text { font-family:'Courier New',Courier,monospace; }
    .lm  { font-size:10px; font-weight:bold; fill:#f0f6fc; }
    .ls  { font-size:8px;  fill:#8b949e; }
    .lc  { font-size:9px;  fill:#00e5ff; font-weight:bold; }
    .lg_ { font-size:9px;  fill:#10ffa0; font-weight:bold; }
    .lr  { font-size:9px;  fill:#ff4d6a; font-weight:bold; }
    .la  { font-size:9px;  fill:#fbbf24; font-weight:bold; }
    .lv  { font-size:9px;  fill:#a78bfa; font-weight:bold; }
    .lo  { font-size:9px;  fill:#ff6b35; font-weight:bold; }
    .lx  { font-size:7.5px;fill:#4b5563; }
  </style>
  <pattern id="grid" width="40" height="40" patternUnits="userSpaceOnUse">
    <path d="M40 0L0 0 0 40" fill="none" stroke="rgba(0,229,255,.04)" stroke-width=".5"/>
  </pattern>
  <marker id="ac" markerWidth="6" markerHeight="6" refX="3" refY="3" orient="auto"><path d="M0,0 L6,3 L0,6Z" fill="#00e5ff"/></marker>
  <marker id="ag" markerWidth="6" markerHeight="6" refX="3" refY="3" orient="auto"><path d="M0,0 L6,3 L0,6Z" fill="#10ffa0"/></marker>
  <marker id="ar" markerWidth="6" markerHeight="6" refX="3" refY="3" orient="auto"><path d="M0,0 L6,3 L0,6Z" fill="#ff4d6a"/></marker>
  <marker id="aa" markerWidth="6" markerHeight="6" refX="3" refY="3" orient="auto"><path d="M0,0 L6,3 L0,6Z" fill="#fbbf24"/></marker>
  <marker id="av" markerWidth="6" markerHeight="6" refX="3" refY="3" orient="auto"><path d="M0,0 L6,3 L0,6Z" fill="#a78bfa"/></marker>
  <marker id="ao" markerWidth="6" markerHeight="6" refX="3" refY="3" orient="auto"><path d="M0,0 L6,3 L0,6Z" fill="#ff6b35"/></marker>
</defs>

<!-- BG -->
<rect width="960" height="600" fill="#0d1117"/>
<rect width="960" height="600" fill="url(#grid)"/>
<ellipse cx="480" cy="60"  rx="320" ry="55"  fill="rgba(0,229,255,.025)"/>
<ellipse cx="180" cy="400" rx="180" ry="110" fill="rgba(16,255,160,.02)"/>
<ellipse cx="800" cy="380" rx="180" ry="130" fill="rgba(167,139,250,.025)"/>

<!-- HEADER -->
<rect x="240" y="10" width="480" height="28" rx="14" fill="rgba(0,229,255,.06)" stroke="rgba(0,229,255,.2)" stroke-width="1"/>
<text x="480" y="29" text-anchor="middle" font-family="Courier New,monospace" font-size="12" font-weight="bold" fill="#f0f6fc">💰  Agentic Financial Parser — 8-Node RAG Architecture</text>
<text x="480" y="50" text-anchor="middle" class="lx">LangGraph · Pinecone · Jina v3 MRL · LlamaParse VLM · Qwen 72B · MongoDB · Langfuse</text>

<!-- author tag -->
<rect x="784" y="10" width="168" height="20" rx="10" fill="rgba(167,139,250,.08)" stroke="rgba(167,139,250,.2)" stroke-width="1"/>
<text x="868" y="24" text-anchor="middle" font-family="Courier New,monospace" font-size="7.5" fill="#a78bfa" letter-spacing=".8">✦ Ambuj Kumar Tripathi</text>

<!-- ══════════ LEFT: INGESTION PIPELINE ══════════ -->
<rect x="16" y="64" width="148" height="470" rx="8" fill="rgba(16,255,160,.025)" stroke="rgba(16,255,160,.12)" stroke-width="1" stroke-dasharray="4,3"/>
<text x="90" y="80" text-anchor="middle" class="lg_" font-size="7.5" letter-spacing="2">INGESTION PIPELINE</text>

<g class="ng"><rect x="26" y="90" width="128" height="40" rx="5" fill="rgba(16,255,160,.08)" stroke="#10ffa0" stroke-width="1"/>
<text x="90" y="106" text-anchor="middle" class="lm" font-size="9.5">📄 LlamaParse VLM</text>
<text x="90" y="120" text-anchor="middle" class="ls">Vision model · Tables+Layouts</text></g>
<line x1="90" y1="130" x2="90" y2="146" class="flow-gr" marker-end="url(#ag)"/>

<g class="nr"><rect x="26" y="146" width="128" height="48" rx="5" fill="rgba(255,77,106,.08)" stroke="#ff4d6a" stroke-width="1"/>
<text x="90" y="162" text-anchor="middle" class="lm" font-size="9.5">🛡️ 7-Layer Security</text>
<text x="90" y="174" text-anchor="middle" class="ls">Ext · MagicBytes · Size</text>
<text x="90" y="186" text-anchor="middle" class="ls">BombGuard · Rate · Hash</text></g>
<line x1="90" y1="194" x2="90" y2="210" class="flow-gr" marker-end="url(#ag)"/>

<g class="ng"><rect x="26" y="210" width="128" height="48" rx="5" fill="rgba(16,255,160,.08)" stroke="#10ffa0" stroke-width="1"/>
<text x="90" y="226" text-anchor="middle" class="lm" font-size="9.5">✂️ Parent-Child Split</text>
<text x="90" y="238" text-anchor="middle" class="ls">Child: 400 chars (search)</text>
<text x="90" y="250" text-anchor="middle" class="ls">Parent: 2000 chars (LLM)</text></g>
<line x1="90" y1="258" x2="90" y2="274" class="flow-gr" marker-end="url(#ag)"/>

<g class="nc"><rect x="26" y="274" width="128" height="36" rx="5" fill="rgba(0,229,255,.08)" stroke="#00e5ff" stroke-width="1"/>
<text x="90" y="289" text-anchor="middle" class="lm" font-size="9.5">🧬 Jina v3 MRL Embed</text>
<text x="90" y="302" text-anchor="middle" class="ls">1024→256d Matryoshka</text></g>
<line x1="90" y1="310" x2="90" y2="326" class="flow-cy" marker-end="url(#ac)"/>

<g class="na"><rect x="26" y="326" width="128" height="36" rx="5" fill="rgba(251,191,36,.08)" stroke="#fbbf24" stroke-width="1"/>
<text x="90" y="341" text-anchor="middle" class="lm" font-size="9.5">🔄 SHA-256 Sync</text>
<text x="90" y="354" text-anchor="middle" class="ls">Idempotent · No ghost vecs</text></g>
<line x1="90" y1="362" x2="90" y2="378" class="flow-am" marker-end="url(#aa)"/>

<g class="nv"><rect x="26" y="378" width="128" height="36" rx="5" fill="rgba(167,139,250,.08)" stroke="#a78bfa" stroke-width="1"/>
<text x="90" y="393" text-anchor="middle" class="lm" font-size="9.5">📦 Pinecone Upsert</text>
<text x="90" y="406" text-anchor="middle" class="ls">9,000+ vectors · 256-dim</text></g>

<rect x="26" y="426" width="128" height="20" rx="4" fill="rgba(16,255,160,.05)" stroke="rgba(16,255,160,.2)" stroke-width="1"/>
<text x="90" y="440" text-anchor="middle" class="lg_" font-size="7.5">✓ ₹0/month · Free tier</text>

<!-- Ingestion flowing dot -->
<circle r="3.5" fill="#10ffa0" opacity=".9">
  <animate attributeName="cy" values="90;414" dur="3s" repeatCount="indefinite"/>
  <animate attributeName="cx" values="90;90" dur="3s" repeatCount="indefinite"/>
  <animate attributeName="opacity" values="0;1;1;0" dur="3s" repeatCount="indefinite"/>
</circle>

<!-- ══════════ CENTER: 8-NODE LANGGRAPH ══════════ -->
<!-- User Query -->
<g class="nc"><rect x="370" y="64" width="240" height="34" rx="8" fill="rgba(0,229,255,.1)" stroke="#00e5ff" stroke-width="1.5"/>
<text x="490" y="78" text-anchor="middle" class="lm" font-size="11">👤 User Query</text>
<text x="490" y="91" text-anchor="middle" class="ls">React SPA · FastAPI · Google OAuth 2.0</text></g>

<line x1="490" y1="98" x2="490" y2="112" class="flow-cy" marker-end="url(#ac)"/>

<!-- PII Shield tag -->
<rect x="425" y="102" width="130" height="14" rx="4" fill="rgba(255,77,106,.1)" stroke="rgba(255,77,106,.3)" stroke-width=".8"/>
<text x="490" y="113" text-anchor="middle" class="lr" font-size="7">🔐 Presidio PII Mask first</text>

<!-- Redis Cache Check -->
<g class="na"><rect x="385" y="116" width="210" height="30" rx="6" fill="rgba(251,191,36,.08)" stroke="#fbbf24" stroke-width="1"/>
<text x="490" y="130" text-anchor="middle" class="lm" font-size="10">⚡ Redis Cache Check</text>
<text x="490" y="141" text-anchor="middle" class="ls">Hit → &lt;5ms  ·  Miss → continue</text></g>

<line x1="490" y1="146" x2="490" y2="164" class="flow-cy" marker-end="url(#ac)"/>

<!-- CLASSIFY NODE (Node 1) -->
<g class="nc"><rect x="365" y="164" width="250" height="46" rx="8" fill="rgba(0,229,255,.1)" stroke="#00e5ff" stroke-width="2"/>
<text x="490" y="181" text-anchor="middle" class="lc" font-size="12">① classify_node</text>
<text x="490" y="194" text-anchor="middle" class="ls">is_abusive · is_greeting · is_vague</text>
<text x="490" y="205" text-anchor="middle" class="ls">4 runtime paths · Zero API call</text></g>

<!-- Branch to CROSS_QUESTION (HITL) -->
<path d="M380 210 L210 232 L210 250" class="flow-or" marker-end="url(#ao)"/>
<text x="280" y="226" text-anchor="middle" class="lo" font-size="7.5">VAGUE</text>

<!-- Branch to GREET -->
<path d="M415 210 L340 232 L340 250" class="flow-gr" marker-end="url(#ag)"/>
<text x="366" y="234" text-anchor="middle" class="lg_" font-size="7.5">GREETING</text>

<!-- Branch to RETRIEVER (center) -->
<line x1="490" y1="210" x2="490" y2="250" class="flow-cy" marker-end="url(#ac)"/>
<text x="505" y="236" class="lc" font-size="7.5">RAG</text>

<!-- Branch to REJECT -->
<path d="M600 210 L700 232 L700 250" class="flow-re" marker-end="url(#ar)"/>
<text x="660" y="226" text-anchor="middle" class="lr" font-size="7.5">ABUSIVE</text>

<!-- Query flow dot -->
<circle r="3.5" fill="#00e5ff" opacity=".9">
  <animate attributeName="cy" values="64;210" dur="2s" repeatCount="indefinite" begin=".3s"/>
  <animate attributeName="cx" values="490;490" dur="2s" repeatCount="indefinite" begin=".3s"/>
  <animate attributeName="opacity" values="0;1;1;0" dur="2s" repeatCount="indefinite" begin=".3s"/>
</circle>

<!-- CROSS_QUESTION NODE (Node 4 — HITL) -->
<g class="no"><rect x="150" y="250" width="120" height="42" rx="6" fill="rgba(255,107,53,.08)" stroke="#ff6b35" stroke-width="1"/>
<text x="210" y="266" text-anchor="middle" class="lm" font-size="9">④ cross_question</text>
<text x="210" y="278" text-anchor="middle" class="ls">HITL · max 2 rounds</text>
<text x="210" y="288" text-anchor="middle" class="ls">Clarifying question</text></g>
<line x1="210" y1="292" x2="210" y2="306" class="flow-or" marker-end="url(#ao)"/>
<rect x="170" y="306" width="80" height="16" rx="4" fill="rgba(255,107,53,.05)" stroke="rgba(255,107,53,.2)" stroke-width="1"/>
<text x="210" y="318" text-anchor="middle" class="lo" font-size="7">→ END (ask user)</text>

<!-- GREET NODE (Node 3) -->
<g class="ng"><rect x="280" y="250" width="120" height="42" rx="6" fill="rgba(16,255,160,.08)" stroke="#10ffa0" stroke-width="1"/>
<text x="340" y="266" text-anchor="middle" class="lm" font-size="9">③ greet_node</text>
<text x="340" y="278" text-anchor="middle" class="ls">temp=0.7 · Skip vectors</text>
<text x="340" y="288" text-anchor="middle" class="ls">Friendly response</text></g>
<line x1="340" y1="292" x2="340" y2="306" class="flow-gr" marker-end="url(#ag)"/>
<rect x="290" y="306" width="100" height="16" rx="4" fill="rgba(16,255,160,.05)" stroke="rgba(16,255,160,.2)" stroke-width="1"/>
<text x="340" y="318" text-anchor="middle" class="lg_" font-size="7">→ post_process → END</text>

<!-- REJECT NODE (Node 2) -->
<g class="nr"><rect x="640" y="250" width="120" height="42" rx="6" fill="rgba(255,77,106,.08)" stroke="#ff4d6a" stroke-width="1"/>
<text x="700" y="266" text-anchor="middle" class="lm" font-size="9">② reject_node</text>
<text x="700" y="278" text-anchor="middle" class="ls">Hardcoded string</text>
<text x="700" y="288" text-anchor="middle" class="ls">0 API calls · Not saved</text></g>
<line x1="700" y1="292" x2="700" y2="306" class="flow-re" marker-end="url(#ar)"/>
<rect x="652" y="306" width="96" height="16" rx="4" fill="rgba(255,77,106,.05)" stroke="rgba(255,77,106,.2)" stroke-width="1"/>
<text x="700" y="318" text-anchor="middle" class="lr" font-size="7">→ END (not saved)</text>

<!-- RETRIEVE NODE (Node 5) -->
<g class="nc"><rect x="390" y="250" width="200" height="50" rx="6" fill="rgba(0,229,255,.09)" stroke="#00e5ff" stroke-width="1.5"/>
<text x="490" y="266" text-anchor="middle" class="lc" font-size="11">⑤ retrieve_node</text>
<text x="490" y="279" text-anchor="middle" class="ls">Jina embed → Pinecone search</text>
<text x="490" y="291" text-anchor="middle" class="ls">cosine score → confidence float</text></g>

<line x1="490" y1="300" x2="490" y2="320" class="flow-cy" marker-end="url(#ac)"/>

<!-- RAG flow dot -->
<circle r="3.5" fill="#00e5ff" opacity=".9">
  <animate attributeName="cy" values="250;490" dur="2.5s" repeatCount="indefinite" begin=".8s"/>
  <animate attributeName="cx" values="490;490" dur="2.5s" repeatCount="indefinite" begin=".8s"/>
  <animate attributeName="opacity" values="0;1;1;0" dur="2.5s" repeatCount="indefinite" begin=".8s"/>
</circle>

<!-- GENERATE NODE (Node 6) -->
<g class="na"><rect x="390" y="320" width="200" height="42" rx="6" fill="rgba(251,191,36,.08)" stroke="#fbbf24" stroke-width="1.5"/>
<text x="490" y="336" text-anchor="middle" class="la" font-size="11">⑥ generator_node</text>
<text x="490" y="349" text-anchor="middle" class="ls">Qwen 72B · temp=0.3</text>
<text x="490" y="359" text-anchor="middle" class="ls">STRICT CONTEXT ONLY prompt</text></g>

<line x1="490" y1="362" x2="490" y2="382" class="flow-am" marker-end="url(#aa)"/>

<!-- HALLUCINATION GUARD (Node 7 — LLM-as-Judge) -->
<g class="nr"><rect x="380" y="382" width="220" height="46" rx="6" fill="rgba(255,77,106,.08)" stroke="#ff4d6a" stroke-width="1.5"/>
<text x="490" y="399" text-anchor="middle" class="lr" font-size="11">⑦ hallucination_guard</text>
<text x="490" y="412" text-anchor="middle" class="ls">LLM-as-Judge · Separate LLM call</text>
<text x="490" y="423" text-anchor="middle" class="ls">grounded → ✓  ·  hallucinated → fallback</text></g>

<!-- Fallback branch from HallucinationGuard -->
<path d="M600 405 L680 405 L680 420" class="flow-re" marker-end="url(#ar)"/>
<rect x="644" y="420" width="72" height="16" rx="4" fill="rgba(255,77,106,.05)" stroke="rgba(255,77,106,.2)" stroke-width="1"/>
<text x="680" y="432" text-anchor="middle" class="lr" font-size="7">🆘 FALLBACK</text>

<line x1="490" y1="428" x2="490" y2="448" class="flow-vi" marker-end="url(#av)"/>

<!-- POST PROCESS NODE (Node 8) -->
<g class="nv"><rect x="390" y="448" width="200" height="36" rx="6" fill="rgba(167,139,250,.09)" stroke="#a78bfa" stroke-width="1.5"/>
<text x="490" y="463" text-anchor="middle" class="lv" font-size="11">⑧ post_process_node</text>
<text x="490" y="477" text-anchor="middle" class="ls">MongoDB · Redis cache · Langfuse trace</text></g>

<line x1="490" y1="484" x2="490" y2="500" class="flow-vi" marker-end="url(#av)"/>
<rect x="444" y="500" width="92" height="18" rx="9" fill="rgba(0,229,255,.08)" stroke="rgba(0,229,255,.3)" stroke-width="1"/>
<text x="490" y="513" text-anchor="middle" class="lc" font-size="9">→ END</text>

<!-- Security box -->
<rect x="640" y="340" width="120" height="42" rx="5" fill="rgba(255,77,106,.05)" stroke="rgba(255,77,106,.15)" stroke-width="1" stroke-dasharray="3,2"/>
<text x="700" y="354" text-anchor="middle" class="lr" font-size="8">🔒 Security</text>
<text x="700" y="366" text-anchor="middle" class="ls">OAuth 2.0 + JWT</text>
<text x="700" y="377" text-anchor="middle" class="ls">SHA-256 · pybreaker</text>

<!-- ══════════ RIGHT: PERSISTENCE LAYER ══════════ -->
<rect x="796" y="64" width="148" height="470" rx="8" fill="rgba(167,139,250,.025)" stroke="rgba(167,139,250,.12)" stroke-width="1" stroke-dasharray="4,3"/>
<text x="870" y="80" text-anchor="middle" class="lv" font-size="7.5" letter-spacing="2">PERSISTENCE LAYER</text>

<g class="nv"><rect x="806" y="90" width="128" height="42" rx="5" fill="rgba(167,139,250,.09)" stroke="#a78bfa" stroke-width="1"/>
<text x="870" y="107" text-anchor="middle" class="lv" font-size="10">📦 Pinecone</text>
<text x="870" y="119" text-anchor="middle" class="ls">9,000+ vectors</text>
<text x="870" y="128" text-anchor="middle" class="ls">256-dim · Serverless</text></g>

<g class="ng"><rect x="806" y="146" width="128" height="42" rx="5" fill="rgba(16,255,160,.08)" stroke="#10ffa0" stroke-width="1"/>
<text x="870" y="163" text-anchor="middle" class="lg_" font-size="10">🍃 MongoDB</text>
<text x="870" y="175" text-anchor="middle" class="ls">Chat history · Chunks</text>
<text x="870" y="185" text-anchor="middle" class="ls">HITL pending_review</text></g>

<g class="na"><rect x="806" y="202" width="128" height="50" rx="5" fill="rgba(251,191,36,.08)" stroke="#fbbf24" stroke-width="1"/>
<text x="870" y="219" text-anchor="middle" class="la" font-size="10">⚡ Redis / Upstash</text>
<text x="870" y="231" text-anchor="middle" class="ls">T1: Response 1hr TTL</text>
<text x="870" y="243" text-anchor="middle" class="ls">T2: Active users 15min</text>
<text x="870" y="249" text-anchor="middle" class="ls">Rate limit: 10/min</text></g>

<g class="nc"><rect x="806" y="266" width="128" height="42" rx="5" fill="rgba(0,229,255,.07)" stroke="#00e5ff" stroke-width="1"/>
<text x="870" y="283" text-anchor="middle" class="lc" font-size="10">📊 Langfuse</text>
<text x="870" y="295" text-anchor="middle" class="ls">LLM tracing</text>
<text x="870" y="305" text-anchor="middle" class="ls">Tokens · Latency · Score</text></g>

<g class="ng"><rect x="806" y="322" width="128" height="42" rx="5" fill="rgba(16,255,160,.06)" stroke="#10ffa0" stroke-width="1"/>
<text x="870" y="339" text-anchor="middle" class="lg_" font-size="10">🐘 Supabase</text>
<text x="870" y="351" text-anchor="middle" class="ls">SHA-256 registry</text>
<text x="870" y="361" text-anchor="middle" class="ls">Doc version tracking</text></g>

<g class="nr"><rect x="806" y="378" width="128" height="42" rx="5" fill="rgba(255,77,106,.07)" stroke="#ff4d6a" stroke-width="1"/>
<text x="870" y="395" text-anchor="middle" class="lr" font-size="10">⚡ Circuit Breaker</text>
<text x="870" y="407" text-anchor="middle" class="ls">pybreaker · fail_max=10</text>
<text x="870" y="417" text-anchor="middle" class="ls">SlowAPI: 10 req/min</text></g>

<!-- ══ retrieve → Pinecone ══ -->
<path d="M590 270 Q710 270 806 112" class="flow-cy2" marker-end="url(#ac)"/>
<text x="718" y="260" class="lx">vector search</text>

<!-- ══ post_process → storage ══ -->
<path d="M590 460 Q720 460 806 168" class="flow-vi" marker-end="url(#av)"/>
<path d="M590 464 Q725 464 806 230" class="flow-am" marker-end="url(#aa)"/>
<path d="M590 468 Q730 468 806 290" class="flow-cy" marker-end="url(#ac)"/>

<!-- ══ LEGEND ══ -->
<rect x="796" y="432" width="148" height="94" rx="6" fill="rgba(0,0,0,.35)" stroke="rgba(255,255,255,.06)" stroke-width="1"/>
<text x="870" y="447" text-anchor="middle" class="lx" font-size="7.5" letter-spacing="1">LEGEND</text>
<line x1="806" y1="457" x2="826" y2="457" stroke="#00e5ff" stroke-width="1.5" stroke-dasharray="4,3"/>
<text x="830" y="461" class="lx">RAG / Query path</text>
<line x1="806" y1="471" x2="826" y2="471" stroke="#10ffa0" stroke-width="1.5" stroke-dasharray="4,3"/>
<text x="830" y="475" class="lx">Greeting path</text>
<line x1="806" y1="485" x2="826" y2="485" stroke="#ff4d6a" stroke-width="1.5" stroke-dasharray="4,3"/>
<text x="830" y="489" class="lx">Reject / Fallback</text>
<line x1="806" y1="499" x2="826" y2="499" stroke="#ff6b35" stroke-width="1.5" stroke-dasharray="4,3"/>
<text x="830" y="503" class="lx">HITL / Vague path</text>
<line x1="806" y1="513" x2="826" y2="513" stroke="#fbbf24" stroke-width="1.5" stroke-dasharray="4,3"/>
<text x="830" y="517" class="lx">Confidence / Cache</text>

<!-- BOTTOM STATS -->
<rect x="16" y="464" width="148" height="56" rx="6" fill="rgba(0,229,255,.03)" stroke="rgba(0,229,255,.1)" stroke-width="1"/>
<text x="90" y="478" text-anchor="middle" class="lc" font-size="7.5" letter-spacing="1">PRODUCTION STATS</text>
<text x="90" y="492" text-anchor="middle" class="ls">8 nodes · 4 runtime paths</text>
<text x="90" y="504" text-anchor="middle" class="ls">₹0/month · 512MB RAM</text>
<text x="90" y="516" text-anchor="middle" class="lx">Render Free Tier · Pinecone</text>

</svg>
